<svg width="78" height="78" viewBox="0 0 78 78" fill="none" xmlns="http://www.w3.org/2000/svg">
<g filter="url(#filter0_d)">
<circle cx="38" cy="41" r="34" stroke="#ECEEF6" stroke-width="2"/>
<path d="M46.982 31.358H49.7497L51.3329 52.1667H26.8545L28.4378 31.358H31.2055C32.1223 31.358 32.8655 30.6148 32.8655 29.6979C32.8655 26.2641 35.6601 23.4697 39.0937 23.4697C42.5274 23.4697 45.3219 26.2641 45.3219 29.6979C45.3219 30.6148 46.0652 31.358 46.982 31.358ZM39.0937 24.3258C36.1309 24.3258 33.7216 26.7354 33.7216 29.6979C33.7216 30.6148 34.4648 31.358 35.3816 31.358H42.8058C43.7227 31.358 44.4659 30.6148 44.4659 29.6979C44.4659 26.7354 42.0565 24.3258 39.0937 24.3258ZM30.4735 35.0341C30.4735 36.5895 31.7378 37.8542 33.2935 37.8542C34.8492 37.8542 36.1136 36.5895 36.1136 35.0341C36.1136 34.8008 36.0883 34.5694 36.0367 34.345C35.9587 34.0062 35.7833 33.7048 35.481 33.5433C35.176 33.3805 34.8477 33.4166 34.589 33.5369C34.0868 33.7703 33.7216 34.3555 33.7216 35.0341C33.7216 35.2697 33.5291 35.4622 33.2935 35.4622C33.058 35.4622 32.8655 35.2697 32.8655 35.0341C32.8655 34.3549 32.4996 33.7695 31.9974 33.5359C31.7387 33.4155 31.4101 33.3791 31.1049 33.5422C30.8022 33.7039 30.6271 34.0059 30.5497 34.345C30.4985 34.5692 30.4735 34.8004 30.4735 35.0341ZM42.0738 35.0341C42.0738 36.5895 43.3382 37.8542 44.8939 37.8542C46.4496 37.8542 47.714 36.5895 47.714 35.0341C47.714 34.8008 47.6887 34.5694 47.637 34.345C47.5591 34.0062 47.3837 33.7048 47.0813 33.5433C46.7764 33.3805 46.4481 33.4166 46.1893 33.5369C45.6871 33.7703 45.3219 34.3555 45.3219 35.0341C45.3219 35.2697 45.1294 35.4622 44.8939 35.4622C44.6584 35.4622 44.4659 35.2697 44.4659 35.0341C44.4659 34.3549 44.1 33.7695 43.5978 33.5359C43.3391 33.4155 43.0105 33.3791 42.7053 33.5422C42.4026 33.7039 42.2275 34.0059 42.1501 34.345C42.0989 34.5692 42.0738 34.8004 42.0738 35.0341Z" fill="white" stroke="#FE3326"/>
</g>
<defs>
<filter id="filter0_d" x="0" y="0" width="78" height="78" filterUnits="userSpaceOnUse" color-interpolation-filters="sRGB">
<feFlood flood-opacity="0" result="BackgroundImageFix"/>
<feColorMatrix in="SourceAlpha" type="matrix" values="0 0 0 0 0 0 0 0 0 0 0 0 0 0 0 0 0 0 127 0"/>
<feOffset dx="1" dy="-2"/>
<feGaussianBlur stdDeviation="2"/>
<feColorMatrix type="matrix" values="0 0 0 0 0 0 0 0 0 0 0 0 0 0 0 0 0 0 0.34 0"/>
<feBlend mode="normal" in2="BackgroundImageFix" result="effect1_dropShadow"/>
<feBlend mode="normal" in="SourceGraphic" in2="effect1_dropShadow" result="shape"/>
</filter>
</defs>
</svg>
