<svg width="30" height="30" viewBox="0 0 30 30" fill="none" xmlns="http://www.w3.org/2000/svg">
<path d="M29.375 7.5H26.1862C25.88 5.385 24.0725 3.75 21.875 3.75H19.6438C19.3375 1.635 17.53 0 15.3325 0C13.135 0 11.3262 1.635 11.02 3.75H8.125C5.9275 3.75 4.12 5.385 3.81375 7.5H0.625C0.28 7.5 0 7.78 0 8.125C0 8.47 0.28 8.75 0.625 8.75H4.375V27.5288C4.375 28.8913 5.48375 30 6.84625 30H23.155C24.5175 30 25.6262 28.8913 25.6262 27.5288V8.75H29.3762C29.72 8.75 30 8.47 30 8.125C30 7.78 29.72 7.5 29.375 7.5ZM15.3325 1.25C16.8425 1.25 18.1037 2.325 18.395 3.75H12.27C12.56 2.325 13.8225 1.25 15.3325 1.25ZM24.375 27.5288C24.375 28.2025 23.8275 28.75 23.1538 28.75H6.84625C6.1725 28.75 5.625 28.2025 5.625 27.5288V8.75H24.375V27.5288ZM5.0625 7.5C5.35375 6.075 6.615 5 8.125 5H11.5825H19.0825H21.875C23.385 5 24.6463 6.075 24.9375 7.5H5.0625Z" fill="black"/>
<path d="M10 25.625C10.345 25.625 10.625 25.345 10.625 25V12.5C10.625 12.155 10.345 11.875 10 11.875C9.655 11.875 9.375 12.155 9.375 12.5V25C9.375 25.345 9.655 25.625 10 25.625Z" fill="black"/>
<path d="M15 25.625C15.345 25.625 15.625 25.345 15.625 25V12.5C15.625 12.155 15.345 11.875 15 11.875C14.655 11.875 14.375 12.155 14.375 12.5V25C14.375 25.345 14.655 25.625 15 25.625Z" fill="black"/>
<path d="M20 25.625C20.345 25.625 20.625 25.345 20.625 25V12.5C20.625 12.155 20.345 11.875 20 11.875C19.655 11.875 19.375 12.155 19.375 12.5V25C19.375 25.345 19.655 25.625 20 25.625Z" fill="black"/>
</svg>
